<svg viewBox="20.949 22.375 124.532 130.369" xmlns="http://www.w3.org/2000/svg" xmlns:xlink="http://www.w3.org/1999/xlink"><defs><linearGradient x1="-7708.797" y1="-803.36" x2="-7633.153" y2="-714.907" id="j" gradientUnits="userSpaceOnUse" gradientTransform="rotate(-65.001 -3054.253 -6609.844)" xlink:href="#a"/><linearGradient x1="-8268.639" y1="-813.123" x2="-7728.958" y2="-813.123" id="k" gradientUnits="userSpaceOnUse" gradientTransform="rotate(-65.001 -3054.253 -6609.844)" xlink:href="#b"/><linearGradient x1="-8203.492" y1="-758.994" x2="-7881.895" y2="-758.994" id="l" gradientUnits="userSpaceOnUse" gradientTransform="rotate(-65.001 -3054.253 -6609.844)" xlink:href="#c"/><linearGradient x1="-8238.328" y1="-818.152" x2="-7698.647" y2="-818.152" id="m" gradientUnits="userSpaceOnUse" gradientTransform="rotate(-65.001 -3054.253 -6609.844)" xlink:href="#d"/><linearGradient x1="-8198.968" y1="-810.851" x2="-7915.35" y2="-810.851" id="n" gradientUnits="userSpaceOnUse" gradientTransform="rotate(-65.001 -3054.253 -6609.844)" xlink:href="#e"/><linearGradient x1="-8238.328" y1="-762.297" x2="-7698.647" y2="-762.297" id="o" gradientUnits="userSpaceOnUse" gradientTransform="rotate(-65.001 -3054.253 -6609.844)" xlink:href="#f"/><linearGradient x1="-8271.806" y1="-765.071" x2="-7732.125" y2="-765.071" id="p" gradientUnits="userSpaceOnUse" gradientTransform="rotate(-65.001 -3054.253 -6609.844)" xlink:href="#g"/><linearGradient x1="-8238.328" y1="-745.685" x2="-7698.647" y2="-745.685" id="q" gradientUnits="userSpaceOnUse" gradientTransform="rotate(-65.001 -3054.253 -6609.844)" xlink:href="#h"/><linearGradient x1="-8238.328" y1="-747.586" x2="-7698.647" y2="-747.586" id="r" gradientUnits="userSpaceOnUse" gradientTransform="rotate(-65.001 -3054.253 -6609.844)" xlink:href="#i"/><linearGradient x1="-7708.797" y1="-803.36" x2="-7633.153" y2="-714.907" id="s" gradientUnits="userSpaceOnUse" gradientTransform="rotate(-65.001 -3054.253 -6609.844)" xlink:href="#a"/><linearGradient x1="-8268.639" y1="-813.123" x2="-7728.958" y2="-813.123" id="t" gradientUnits="userSpaceOnUse" gradientTransform="rotate(-65.001 -3054.253 -6609.844)" xlink:href="#b"/><linearGradient x1="-8203.492" y1="-758.994" x2="-7881.895" y2="-758.994" id="u" gradientUnits="userSpaceOnUse" gradientTransform="rotate(-65.001 -3054.253 -6609.844)" xlink:href="#c"/><linearGradient x1="-8238.328" y1="-818.152" x2="-7698.647" y2="-818.152" id="v" gradientUnits="userSpaceOnUse" gradientTransform="rotate(-65.001 -3054.253 -6609.844)" xlink:href="#d"/><linearGradient x1="-8198.968" y1="-810.851" x2="-7915.35" y2="-810.851" id="w" gradientUnits="userSpaceOnUse" gradientTransform="rotate(-65.001 -3054.253 -6609.844)" xlink:href="#e"/><linearGradient x1="-8238.328" y1="-762.297" x2="-7698.647" y2="-762.297" id="x" gradientUnits="userSpaceOnUse" gradientTransform="rotate(-65.001 -3054.253 -6609.844)" xlink:href="#f"/><linearGradient x1="-8271.806" y1="-765.071" x2="-7732.125" y2="-765.071" id="y" gradientUnits="userSpaceOnUse" gradientTransform="rotate(-65.001 -3054.253 -6609.844)" xlink:href="#g"/><linearGradient x1="-8238.328" y1="-745.685" x2="-7698.647" y2="-745.685" id="z" gradientUnits="userSpaceOnUse" gradientTransform="rotate(-65.001 -3054.253 -6609.844)" xlink:href="#h"/><linearGradient x1="-8238.328" y1="-747.586" x2="-7698.647" y2="-747.586" id="A" gradientUnits="userSpaceOnUse" gradientTransform="rotate(-65.001 -3054.253 -6609.844)" xlink:href="#i"/></defs><path d="M267.1 19.6c-8.4 5-22.4 19-39 39.3l15.3 28.9c10.7-15.4 21.7-29.2 32.7-41 .8-.9 1.3-1.4 1.3-1.4-.4.5-.9.9-1.3 1.4-3.6 3.9-14.4 16.5-30.7 41.6 15.7-.8 39.8-4 59.5-7.4 5.9-32.8-5.7-47.8-5.7-47.8s-14.8-23.9-32.1-13.6z" fill="url(#j)" transform="rotate(-36.277 94.589 9.857) scale(.20267)"/><path d="M74.008 59.093c.016-.012.032-.024.037-.052l-.336.296c-.004.029-.037.053-.041.081.118-.112.237-.225.34-.325zm3.65 10.317zm-3.428 31.705c-.016-.09-.06-.183-.075-.272a998.9 998.9 0 01-1.484-5.448 638.189 638.189 0 01-1.5-5.812 420.061 420.061 0 01-1.404-5.783c-.466-1.97-.9-3.864-1.299-5.708-.32-1.5-.634-2.954-.923-4.376-.1-.479-.19-.942-.278-1.405-.176-.926-.358-1.824-.527-2.705-.15-.82-.303-1.612-.457-2.405-.046-.268-.092-.536-.142-.775l-.023-.134-.287.26-.593-.294c.02.061.023.134.043.195.194 1.19.4 2.396.636 3.607.126.686.265 1.389.387 2.103.37 1.942.755 3.871 1.18 5.821.41 1.962.847 3.929 1.29 5.867.43 1.922.892 3.82 1.355 5.717.463 1.898.93 3.768 1.413 5.625a281.5 281.5 0 001.526 5.744c.109.422.23.861.355 1.272.418 1.529.828 3.012 1.255 4.484l.956.48.319-.284c-.008-.045-.015-.09-.04-.122-.632-1.924-1.168-3.819-1.684-5.652zm2.74-30.998z" fill="none"/><path d="M79.17 74.862c-.278.306-.569.594-.86.883.152-.136.307-.3.447-.453.151-.136.29-.289.414-.43z" fill="#be202e"/><path d="M79.17 74.862c-.278.306-.569.594-.86.883.152-.136.307-.3.447-.453.151-.136.29-.289.414-.43z" opacity=".35" fill="#be202e"/><path d="M76.986 70.105c-.016.012-.016.012 0 0 .05-.036.086-.088.135-.124.189-.189.377-.377.537-.57-.209.229-.446.453-.672.694z" fill="#be202e"/><path d="M76.986 70.105c-.016.012-.016.012 0 0 .05-.036.086-.088.135-.124.189-.189.377-.377.537-.57-.209.229-.446.453-.672.694z" opacity=".35" fill="#be202e"/><path d="M198.2 162.4c4.7-8.7 9.4-17.2 14.1-25.5 4.9-8.6 9.9-16.9 15-25 .3-.5.6-1 .9-1.4 5-7.9 10-15.5 15.1-22.8L228 58.9c-1.1 1.4-2.3 2.8-3.5 4.3-4.4 5.5-9 11.4-13.7 17.7-5.3 7.1-10.7 14.6-16.3 22.5-5.1 7.3-10.3 15-15.5 22.9-4.4 6.8-8.8 13.7-13.2 20.8-.2.3-.3.5-.5.8l19.9 39.3c4.4-8.3 8.7-16.6 13-24.8z" fill="url(#k)" transform="rotate(-36.277 94.589 9.857) scale(.20267)"/><path d="M107.5 384.1c-2.6 7.2-5.3 14.6-7.9 22.2 0 .1-.1.2-.1.3-.4 1.1-.8 2.1-1.1 3.2-1.8 5.1-3.3 9.7-6.9 20.1 5.9 2.7 10.6 9.7 15 17.7-.5-8.3-3.9-16.1-10.4-22.1 28.9 1.3 53.9-6 66.7-27.2 1.1-1.9 2.2-3.9 3.2-6-5.9 7.4-13.1 10.6-26.8 9.8h-.1.1c20.1-9 30.2-17.7 39.1-32 2.1-3.4 4.2-7.1 6.3-11.2-17.6 18.1-38 23.2-59.5 19.3L109 380c-.5 1.4-1 2.7-1.5 4.1z" fill="url(#l)" transform="rotate(-36.277 94.589 9.857) scale(.20267)"/><path d="M115 348c3.5-9 7.1-18.1 10.7-27.3 3.5-8.8 7.1-17.6 10.8-26.5 3.7-8.9 7.5-17.8 11.3-26.7 3.9-9.1 7.9-18.1 12-27.1 4-8.9 8.2-17.8 12.3-26.6 1.5-3.2 3-6.3 4.6-9.5 2.6-5.4 5.3-10.8 8-16.2.1-.3.3-.6.4-.9L165.4 148c-.3.5-.6 1.1-1 1.6-4.6 7.6-9.3 15.3-13.8 23.2-4.6 8-9.1 16.1-13.5 24.4-3.7 7-7.3 14-10.9 21.1-.7 1.4-1.4 2.9-2.1 4.3-4.3 8.9-8.3 17.6-11.8 25.9-4 9.4-7.5 18.4-10.6 26.9-2 5.6-3.9 11-5.6 16.2-1.4 4.4-2.7 8.9-4 13.3-3 10.4-5.5 20.8-7.6 31.2l20 39.5c2.6-7.1 5.4-14.2 8.1-21.5.8-2 1.6-4 2.4-6.1z" fill="url(#m)" transform="rotate(-36.277 94.589 9.857) scale(.20267)"/><path d="M84.2 337.5c-2.5 12.6-4.3 25.2-5.2 37.8 0 .4-.1.9-.1 1.3-6.2-10-23-19.8-22.9-19.7 12 17.4 21.1 34.6 22.4 51.5-6.4 1.3-15.2-.6-25.3-4.3 10.6 9.7 18.5 12.4 21.6 13.1-9.7.6-19.8 7.3-30 15 14.9-6.1 27-8.5 35.6-6.5-13.7 38.7-27.4 81.5-41.1 126.9 4.2-1.2 6.7-4.1 8.1-7.9 2.4-8.2 18.7-62.2 44.1-133.1.7-2 1.5-4 2.2-6.1.2-.6.4-1.1.6-1.7 2.7-7.4 5.5-15 8.4-22.8.7-1.8 1.3-3.5 2-5.3v-.1l-20-39.5c-.2.5-.3.9-.4 1.4z" fill="url(#n)" transform="rotate(-36.277 94.589 9.857) scale(.20267)"/><path d="M188.4 190.6c-.6 1.2-1.1 2.3-1.7 3.5-1.7 3.6-3.5 7.2-5.2 10.9-1.9 4-3.8 8.1-5.8 12.3-1 2.1-2 4.2-3 6.4-3 6.5-6 13.2-9.1 20.1-3.8 8.5-7.6 17.3-11.5 26.5-3.7 8.7-7.5 17.8-11.3 27.1-3.6 8.9-7.3 18-11 27.5-3.3 8.4-6.6 17.1-10 26-.2.4-.3.9-.5 1.3-3.3 8.8-6.7 17.9-10.1 27.2-.1.2-.2.4-.2.6l16.1-1.8c-.3-.1-.6-.1-1-.2 19.3-2.4 44.9-16.8 61.4-34.6 7.6-8.2 14.5-17.8 20.9-29.1 4.8-8.4 9.2-17.7 13.5-28.1 3.7-9 7.3-18.8 10.7-29.4-4.4 2.3-9.5 4-15.1 5.2l-3 .6c-1 .2-2 .3-3.1.5 18-6.9 29.3-20.2 37.5-36.6-4.7 3.2-12.4 7.4-21.6 9.5-1.2.3-2.5.5-3.8.7-.3 0-.6.1-1 .1 6.2-2.6 11.5-5.5 16.1-9 1-.7 1.9-1.5 2.8-2.3 1.4-1.2 2.7-2.5 4-3.8.8-.9 1.6-1.7 2.4-2.6 1.8-2.1 3.5-4.4 5-6.9.5-.8 1-1.5 1.4-2.3.6-1.2 1.2-2.3 1.7-3.4 2.5-5 4.5-9.5 6.1-13.5.8-2 1.5-3.8 2.1-5.5.2-.7.5-1.3.7-2 .6-1.9 1.2-3.6 1.6-5.1.6-2.2 1-4 1.2-5.3-.6.5-1.3 1-2.1 1.4-5.4 3.2-14.7 6.2-22.2 7.6l14.8-1.6-14.8 1.6c-.1 0-.2 0-.3.1-.7.1-1.5.2-2.3.4.1-.1.3-.1.4-.2l-50.6 5.5c.1.4 0 .6-.1.7z" fill="url(#o)" transform="rotate(-36.277 94.589 9.857) scale(.20267)"/><path d="M245.4 88.4c-4.5 6.9-9.4 14.8-14.7 23.6-.3.5-.6.9-.8 1.4-4.6 7.7-9.4 16.1-14.5 25.4-4.4 8-9 16.5-13.8 25.8-4.2 8-8.4 16.5-12.9 25.5l50.6-5.5c14.7-6.8 21.3-12.9 27.7-21.8 1.7-2.4 3.4-5 5.1-7.7 5.2-8.1 10.3-17 14.8-25.9 4.4-8.6 8.3-17.1 11.2-24.7 1.9-4.9 3.4-9.4 4.5-13.4.9-3.5 1.6-6.8 2.2-10-19.6 3.3-43.7 6.5-59.4 7.3z" fill="url(#p)" transform="rotate(-36.277 94.589 9.857) scale(.20267)"/><path d="M78.769 75.308c-.14.153-.291.289-.447.454.14-.153.28-.306.447-.454z" fill="#be202e"/><path d="M78.769 75.308c-.14.153-.291.289-.447.454.14-.153.28-.306.447-.454z" opacity=".35" fill="#be202e"/><path d="M212.7 262.8c-1 .2-2 .3-3.1.5 1-.2 2-.4 3.1-.5z" fill="url(#q)" transform="rotate(-36.277 94.589 9.857) scale(.20267)"/><path d="M76.97 70.117c.05-.036.086-.088.151-.136-.049.036-.086.088-.15.136z" fill="#be202e"/><path d="M76.97 70.117c.05-.036.086-.088.151-.136-.049.036-.086.088-.15.136z" opacity=".35" fill="#be202e"/><path d="M220.7 236.9c.3 0 .6-.1 1-.1-.3 0-.6.1-1 .1z" fill="url(#r)" transform="rotate(-36.277 94.589 9.857) scale(.20267)"/><g transform="rotate(8.343 -79.699 532.855) scale(.22923)"><linearGradient x1="-7708.797" y1="-803.36" x2="-7633.153" y2="-714.907" id="a" gradientUnits="userSpaceOnUse" gradientTransform="rotate(-65.001 -3054.253 -6609.844)"><stop offset="0" stop-color="#f69923"/><stop offset=".312" stop-color="#f79a23"/><stop offset=".838" stop-color="#e97826"/></linearGradient><path d="M267.1 19.6c-8.4 5-22.4 19-39 39.3l15.3 28.9c10.7-15.4 21.7-29.2 32.7-41 .8-.9 1.3-1.4 1.3-1.4-.4.5-.9.9-1.3 1.4-3.6 3.9-14.4 16.5-30.7 41.6 15.7-.8 39.8-4 59.5-7.4 5.9-32.8-5.7-47.8-5.7-47.8s-14.8-23.9-32.1-13.6z" fill="url(#s)"/><path d="M241.1 184.4c.1 0 .2 0 .3-.1l-2.2.2c-.1.1-.3.1-.4.2.8-.1 1.6-.2 2.3-.3zm-15.6 51.7c-1.2.3-2.5.5-3.8.7 1.3-.2 2.6-.4 3.8-.7zM119.3 352.2c.2-.4.3-.9.5-1.3 3.4-8.9 6.7-17.5 10-26 3.7-9.4 7.4-18.6 11-27.5 3.8-9.3 7.6-18.4 11.3-27.1 3.9-9.2 7.7-18 11.5-26.5 3.1-6.9 6.1-13.6 9.1-20.1 1-2.2 2-4.3 3-6.4 2-4.2 3.9-8.3 5.8-12.3 1.8-3.7 3.5-7.3 5.2-10.9.6-1.2 1.2-2.4 1.7-3.5l.3-.6-1.9.2-1.5-2.9c-.1.3-.3.6-.4.9-2.7 5.3-5.4 10.7-8 16.2-1.5 3.1-3 6.3-4.6 9.5-4.2 8.8-8.3 17.6-12.3 26.6-4.1 9-8.1 18.1-12 27.1-3.9 8.9-7.6 17.8-11.3 26.7-3.7 8.9-7.3 17.7-10.8 26.5-3.7 9.2-7.3 18.3-10.7 27.3-.8 2-1.6 4.1-2.3 6.1-2.8 7.3-5.5 14.4-8.1 21.5l2.4 4.7 2.1-.2c.1-.2.2-.4.2-.6 3.1-9.5 6.5-18.6 9.8-27.4zm101.4-115.3z" fill="none"/><path d="M215.6 262.2c-2 .4-4 .7-6 1 1-.1 2.1-.3 3.1-.5 1-.1 2-.3 2.9-.5z" fill="#be202e"/><path d="M215.6 262.2c-2 .4-4 .7-6 1 1-.1 2.1-.3 3.1-.5 1-.1 2-.3 2.9-.5z" opacity=".35" fill="#be202e"/><path d="M220.8 236.9c-.1 0-.1 0 0 0 .3 0 .6-.1.9-.1 1.3-.2 2.6-.4 3.8-.7-1.5.3-3.1.5-4.7.8z" fill="#be202e"/><path d="M220.8 236.9c-.1 0-.1 0 0 0 .3 0 .6-.1.9-.1 1.3-.2 2.6-.4 3.8-.7-1.5.3-3.1.5-4.7.8z" opacity=".35" fill="#be202e"/><linearGradient x1="-8268.639" y1="-813.123" x2="-7728.958" y2="-813.123" id="b" gradientUnits="userSpaceOnUse" gradientTransform="rotate(-65.001 -3054.253 -6609.844)"><stop offset=".323" stop-color="#9e2064"/><stop offset=".63" stop-color="#c92037"/><stop offset=".751" stop-color="#cd2335"/><stop offset="1" stop-color="#e97826"/></linearGradient><path d="M198.2 162.4c4.7-8.7 9.4-17.2 14.1-25.5 4.9-8.6 9.9-16.9 15-25 .3-.5.6-1 .9-1.4 5-7.9 10-15.5 15.1-22.8L228 58.9c-1.1 1.4-2.3 2.8-3.5 4.3-4.4 5.5-9 11.4-13.7 17.7-5.3 7.1-10.7 14.6-16.3 22.5-5.1 7.3-10.3 15-15.5 22.9-4.4 6.8-8.8 13.7-13.2 20.8-.2.3-.3.5-.5.8l19.9 39.3c4.4-8.3 8.7-16.6 13-24.8z" fill="url(#t)"/><linearGradient x1="-8203.492" y1="-758.994" x2="-7881.895" y2="-758.994" id="c" gradientUnits="userSpaceOnUse" gradientTransform="rotate(-65.001 -3054.253 -6609.844)"><stop offset="0" stop-color="#282662"/><stop offset=".096" stop-color="#662e8d"/><stop offset=".788" stop-color="#9f2064"/><stop offset=".949" stop-color="#cd2032"/></linearGradient><path d="M107.5 384.1c-2.6 7.2-5.3 14.6-7.9 22.2 0 .1-.1.2-.1.3-.4 1.1-.8 2.1-1.1 3.2-1.8 5.1-3.3 9.7-6.9 20.1 5.9 2.7 10.6 9.7 15 17.7-.5-8.3-3.9-16.1-10.4-22.1 28.9 1.3 53.9-6 66.7-27.2 1.1-1.9 2.2-3.9 3.2-6-5.9 7.4-13.1 10.6-26.8 9.8h-.1.1c20.1-9 30.2-17.7 39.1-32 2.1-3.4 4.2-7.1 6.3-11.2-17.6 18.1-38 23.2-59.5 19.3L109 380c-.5 1.4-1 2.7-1.5 4.1z" fill="url(#u)"/><linearGradient x1="-8238.328" y1="-818.152" x2="-7698.647" y2="-818.152" id="d" gradientUnits="userSpaceOnUse" gradientTransform="rotate(-65.001 -3054.253 -6609.844)"><stop offset=".323" stop-color="#9e2064"/><stop offset=".63" stop-color="#c92037"/><stop offset=".751" stop-color="#cd2335"/><stop offset="1" stop-color="#e97826"/></linearGradient><path d="M115 348c3.5-9 7.1-18.1 10.7-27.3 3.5-8.8 7.1-17.6 10.8-26.5 3.7-8.9 7.5-17.8 11.3-26.7 3.9-9.1 7.9-18.1 12-27.1 4-8.9 8.2-17.8 12.3-26.6 1.5-3.2 3-6.3 4.6-9.5 2.6-5.4 5.3-10.8 8-16.2.1-.3.3-.6.4-.9L165.4 148c-.3.5-.6 1.1-1 1.6-4.6 7.6-9.3 15.3-13.8 23.2-4.6 8-9.1 16.1-13.5 24.4-3.7 7-7.3 14-10.9 21.1-.7 1.4-1.4 2.9-2.1 4.3-4.3 8.9-8.3 17.6-11.8 25.9-4 9.4-7.5 18.4-10.6 26.9-2 5.6-3.9 11-5.6 16.2-1.4 4.4-2.7 8.9-4 13.3-3 10.4-5.5 20.8-7.6 31.2l20 39.5c2.6-7.1 5.4-14.2 8.1-21.5.8-2 1.6-4 2.4-6.1z" fill="url(#v)"/><linearGradient x1="-8198.968" y1="-810.851" x2="-7915.35" y2="-810.851" id="e" gradientUnits="userSpaceOnUse" gradientTransform="rotate(-65.001 -3054.253 -6609.844)"><stop offset="0" stop-color="#282662"/><stop offset=".096" stop-color="#662e8d"/><stop offset=".788" stop-color="#9f2064"/><stop offset=".949" stop-color="#cd2032"/></linearGradient><path d="M84.2 337.5c-2.5 12.6-4.3 25.2-5.2 37.8 0 .4-.1.9-.1 1.3-6.2-10-23-19.8-22.9-19.7 12 17.4 21.1 34.6 22.4 51.5-6.4 1.3-15.2-.6-25.3-4.3 10.6 9.7 18.5 12.4 21.6 13.1-9.7.6-19.8 7.3-30 15 14.9-6.1 27-8.5 35.6-6.5-13.7 38.7-27.4 81.5-41.1 126.9 4.2-1.2 6.7-4.1 8.1-7.9 2.4-8.2 18.7-62.2 44.1-133.1.7-2 1.5-4 2.2-6.1.2-.6.4-1.1.6-1.7 2.7-7.4 5.5-15 8.4-22.8.7-1.8 1.3-3.5 2-5.3v-.1l-20-39.5c-.2.5-.3.9-.4 1.4z" fill="url(#w)"/><linearGradient x1="-8238.328" y1="-762.297" x2="-7698.647" y2="-762.297" id="f" gradientUnits="userSpaceOnUse" gradientTransform="rotate(-65.001 -3054.253 -6609.844)"><stop offset=".323" stop-color="#9e2064"/><stop offset=".63" stop-color="#c92037"/><stop offset=".751" stop-color="#cd2335"/><stop offset="1" stop-color="#e97826"/></linearGradient><path d="M188.4 190.6c-.6 1.2-1.1 2.3-1.7 3.5-1.7 3.6-3.5 7.2-5.2 10.9-1.9 4-3.8 8.1-5.8 12.3-1 2.1-2 4.2-3 6.4-3 6.5-6 13.2-9.1 20.1-3.8 8.5-7.6 17.3-11.5 26.5-3.7 8.7-7.5 17.8-11.3 27.1-3.6 8.9-7.3 18-11 27.5-3.3 8.4-6.6 17.1-10 26-.2.4-.3.9-.5 1.3-3.3 8.8-6.7 17.9-10.1 27.2-.1.2-.2.4-.2.6l16.1-1.8c-.3-.1-.6-.1-1-.2 19.3-2.4 44.9-16.8 61.4-34.6 7.6-8.2 14.5-17.8 20.9-29.1 4.8-8.4 9.2-17.7 13.5-28.1 3.7-9 7.3-18.8 10.7-29.4-4.4 2.3-9.5 4-15.1 5.2l-3 .6c-1 .2-2 .3-3.1.5 18-6.9 29.3-20.2 37.5-36.6-4.7 3.2-12.4 7.4-21.6 9.5-1.2.3-2.5.5-3.8.7-.3 0-.6.1-1 .1 6.2-2.6 11.5-5.5 16.1-9 1-.7 1.9-1.5 2.8-2.3 1.4-1.2 2.7-2.5 4-3.8.8-.9 1.6-1.7 2.4-2.6 1.8-2.1 3.5-4.4 5-6.9.5-.8 1-1.5 1.4-2.3.6-1.2 1.2-2.3 1.7-3.4 2.5-5 4.5-9.5 6.1-13.5.8-2 1.5-3.8 2.1-5.5.2-.7.5-1.3.7-2 .6-1.9 1.2-3.6 1.6-5.1.6-2.2 1-4 1.2-5.3-.6.5-1.3 1-2.1 1.4-5.4 3.2-14.7 6.2-22.2 7.6l14.8-1.6-14.8 1.6c-.1 0-.2 0-.3.1-.7.1-1.5.2-2.3.4.1-.1.3-.1.4-.2l-50.6 5.5c.1.4 0 .6-.1.7z" fill="url(#x)"/><linearGradient x1="-8271.806" y1="-765.071" x2="-7732.125" y2="-765.071" id="g" gradientUnits="userSpaceOnUse" gradientTransform="rotate(-65.001 -3054.253 -6609.844)"><stop offset=".323" stop-color="#9e2064"/><stop offset=".63" stop-color="#c92037"/><stop offset=".751" stop-color="#cd2335"/><stop offset="1" stop-color="#e97826"/></linearGradient><path d="M245.4 88.4c-4.5 6.9-9.4 14.8-14.7 23.6-.3.5-.6.9-.8 1.4-4.6 7.7-9.4 16.1-14.5 25.4-4.4 8-9 16.5-13.8 25.8-4.2 8-8.4 16.5-12.9 25.5l50.6-5.5c14.7-6.8 21.3-12.9 27.7-21.8 1.7-2.4 3.4-5 5.1-7.7 5.2-8.1 10.3-17 14.8-25.9 4.4-8.6 8.3-17.1 11.2-24.7 1.9-4.9 3.4-9.4 4.5-13.4.9-3.5 1.6-6.8 2.2-10-19.6 3.3-43.7 6.5-59.4 7.3z" fill="url(#y)"/><path d="M212.7 262.8c-1 .2-2 .3-3.1.5 1-.2 2-.4 3.1-.5z" fill="#be202e"/><path d="M212.7 262.8c-1 .2-2 .3-3.1.5 1-.2 2-.4 3.1-.5z" opacity=".35" fill="#be202e"/><linearGradient x1="-8238.328" y1="-745.685" x2="-7698.647" y2="-745.685" id="h" gradientUnits="userSpaceOnUse" gradientTransform="rotate(-65.001 -3054.253 -6609.844)"><stop offset=".323" stop-color="#9e2064"/><stop offset=".63" stop-color="#c92037"/><stop offset=".751" stop-color="#cd2335"/><stop offset="1" stop-color="#e97826"/></linearGradient><path d="M212.7 262.8c-1 .2-2 .3-3.1.5 1-.2 2-.4 3.1-.5z" fill="url(#z)"/><path d="M220.7 236.9c.3 0 .6-.1 1-.1-.3 0-.6.1-1 .1z" fill="#be202e"/><path d="M220.7 236.9c.3 0 .6-.1 1-.1-.3 0-.6.1-1 .1z" opacity=".35" fill="#be202e"/><linearGradient x1="-8238.328" y1="-747.586" x2="-7698.647" y2="-747.586" id="i" gradientUnits="userSpaceOnUse" gradientTransform="rotate(-65.001 -3054.253 -6609.844)"><stop offset=".323" stop-color="#9e2064"/><stop offset=".63" stop-color="#c92037"/><stop offset=".751" stop-color="#cd2335"/><stop offset="1" stop-color="#e97826"/></linearGradient><path d="M220.7 236.9c.3 0 .6-.1 1-.1-.3 0-.6.1-1 .1z" fill="url(#A)"/></g></svg>